<svg width="775" height="775" viewBox="0 0 775 775" fill="none" xmlns="http://www.w3.org/2000/svg">
<rect width="775" height="775" rx="46" fill="black"/>
<path d="M378.823 73.564C334.408 76.3814 289.165 89.2528 250.44 110.079C221.327 125.768 198.457 142.783 174.923 166.261C155.257 185.927 141.115 203.991 127.083 227.359C103.053 267.244 88.9662 310.112 83.9944 358.283C82.6685 371.431 82.6685 401.98 83.9944 415.459C90.513 480.7 114.985 538.594 157.301 588.92C165.532 598.753 184.812 617.923 194.866 626.264C227.404 653.388 260.88 672.115 299.826 685.042C360.427 705.15 425.116 706.255 486.822 688.357C512.675 680.844 541.457 667.862 564.99 653.112C603.273 629.137 636.584 596.433 661.222 558.813C674.094 539.147 682.159 523.403 691.882 498.986C692.103 498.488 681.165 498.323 638.131 498.378H584.048L577.585 508.156C574.05 513.514 568.47 521.304 565.211 525.392C557.477 535.059 539.689 552.847 530.187 560.415C482.789 598.201 426.11 614.221 369.156 605.99C330.652 600.411 294.965 584.28 264.858 558.758C226.741 526.552 200.777 482.247 190.667 432.198C187.463 416.343 186.414 405.35 186.414 387.562C186.359 371.32 186.8 365.244 189.121 350.881C197.959 295.473 228.011 246.804 273.31 214.377C313.195 185.872 363.466 172.116 414.731 175.707C483.728 180.569 543.224 214.819 579.684 270.724L584.048 277.353H638.02H691.992L691.274 275.254C688.457 267.41 680.446 249.953 675.198 240.286C630.618 158.195 554.659 100.357 464.946 80.2483C438.264 74.2269 406.72 71.7963 378.823 73.564Z" fill="white"/>
<path d="M387.219 278.513C332.585 283.761 290.324 328.397 287.838 383.419C286.071 422.696 306.124 460.426 339.766 481.308C374.735 503.074 419.647 503.184 454.891 481.695C473.066 470.591 489.805 451.477 497.87 432.64L500.024 427.613H568.415H636.749L659.288 411.592C671.663 402.753 696.024 385.407 713.371 373.033L744.969 350.549L622.884 350.384L500.798 350.273L499.914 347.898C498.091 343.202 492.07 331.656 489.031 327.127C466.382 293.374 427.16 274.646 387.219 278.513Z" fill="white"/>
</svg>
